<svg xmlns="http://www.w3.org/2000/svg" viewBox="0 0 24 24" id="Edit-2-Line--Streamline-Mingcute.svg"><desc>Edit 2 Line Streamline Icon: https://streamlinehq.com</desc><g fill="none" fill-rule="evenodd"><path d="M24 0v24H0V0h24ZM12.594 23.258l-0.012 0.002 -0.071 0.035 -0.02 0.004 -0.014 -0.004 -0.071 -0.036c-0.01 -0.003 -0.019 0 -0.024 0.006l-0.004 0.01 -0.017 0.428 0.005 0.02 0.01 0.013 0.104 0.074 0.015 0.004 0.012 -0.004 0.104 -0.074 0.012 -0.016 0.004 -0.017 -0.017 -0.427c-0.002 -0.01 -0.009 -0.017 -0.016 -0.018Zm0.264 -0.113 -0.014 0.002 -0.184 0.093 -0.01 0.01 -0.003 0.011 0.018 0.43 0.005 0.012 0.008 0.008 0.201 0.092c0.012 0.004 0.023 0 0.029 -0.008l0.004 -0.014 -0.034 -0.614c-0.003 -0.012 -0.01 -0.02 -0.02 -0.022Zm-0.715 0.002a0.023 0.023 0 0 0 -0.027 0.006l-0.006 0.014 -0.034 0.614c0 0.012 0.007 0.02 0.017 0.024l0.015 -0.002 0.201 -0.093 0.01 -0.008 0.003 -0.011 0.018 -0.43 -0.003 -0.012 -0.01 -0.01 -0.184 -0.092Z" stroke-width="1"></path><path fill="#000000" d="M13.896 3.03a2 2 0 0 1 2.701 -0.117l0.127 0.117 4.243 4.243a2 2 0 0 1 0.117 2.7l-0.117 0.128 -10.314 10.314a2 2 0 0 1 -1.238 0.578L9.239 21H4.006c-0.52 0 -0.949 -0.394 -1.004 -0.9l-0.006 -0.11v-5.233a2 2 0 0 1 0.467 -1.284l0.12 -0.13L13.895 3.03ZM12.17 7.584l-7.174 7.174V19H9.24l7.174 -7.174 -4.243 -4.243Zm3.14 -3.14L13.584 6.17l4.243 4.243 1.726 -1.726 -4.243 -4.243Z" stroke-width="1"></path></g></svg>